<svg width="26" height="26" viewBox="0 0 26 26" fill="none" xmlns="http://www.w3.org/2000/svg">
<path d="M19.9869 5.16705C18.2672 3.43614 15.9975 2.35946 13.5691 2.12263C11.1406 1.88579 8.70568 2.50364 6.68398 3.86966C4.66227 5.23568 3.1805 7.26427 2.49415 9.60568C1.80779 11.9471 1.95985 14.4546 2.92411 16.6959C3.02461 16.9043 3.05758 17.1387 3.01843 17.3667L2.09612 21.8001C2.06059 21.9701 2.06785 22.1462 2.11724 22.3127C2.16663 22.4792 2.25662 22.6308 2.3791 22.7538C2.47952 22.8535 2.59907 22.9318 2.73056 22.9841C2.86205 23.0363 3.00276 23.0614 3.1442 23.0578H3.35382L7.8396 22.1564C8.06759 22.129 8.29879 22.1615 8.51038 22.2508C10.7517 23.215 13.2592 23.3671 15.6006 22.6807C17.942 21.9944 19.9706 20.5126 21.3366 18.4909C22.7027 16.4692 23.3205 14.0342 23.0837 11.6058C22.8468 9.17738 21.7702 6.90769 20.0393 5.18801L19.9869 5.16705ZM8.38461 13.6251C8.17731 13.6251 7.97468 13.5636 7.80232 13.4484C7.62997 13.3333 7.49563 13.1696 7.41631 12.9781C7.33698 12.7866 7.31622 12.5758 7.35666 12.3725C7.3971 12.1692 7.49692 11.9825 7.6435 11.8359C7.79008 11.6893 7.97683 11.5895 8.18014 11.549C8.38344 11.5086 8.59418 11.5294 8.78569 11.6087C8.9772 11.688 9.14089 11.8223 9.25605 11.9947C9.37122 12.1671 9.43269 12.3697 9.43269 12.577C9.43269 12.8549 9.32226 13.1215 9.12571 13.3181C8.92916 13.5146 8.66257 13.6251 8.38461 13.6251ZM12.5769 13.6251C12.3696 13.6251 12.167 13.5636 11.9946 13.4484C11.8223 13.3333 11.688 13.1696 11.6086 12.9781C11.5293 12.7866 11.5085 12.5758 11.549 12.3725C11.5894 12.1692 11.6892 11.9825 11.8358 11.8359C11.9824 11.6893 12.1691 11.5895 12.3725 11.549C12.5758 11.5086 12.7865 11.5294 12.978 11.6087C13.1695 11.688 13.3332 11.8223 13.4484 11.9947C13.5635 12.1671 13.625 12.3697 13.625 12.577C13.625 12.8549 13.5146 13.1215 13.318 13.3181C13.1215 13.5146 12.8549 13.6251 12.5769 13.6251ZM16.7692 13.6251C16.562 13.6251 16.3593 13.5636 16.187 13.4484C16.0146 13.3333 15.8803 13.1696 15.8009 12.9781C15.7216 12.7866 15.7009 12.5758 15.7413 12.3725C15.7817 12.1692 15.8816 11.9825 16.0281 11.8359C16.1747 11.6893 16.3615 11.5895 16.5648 11.549C16.7681 11.5086 16.9788 11.5294 17.1703 11.6087C17.3618 11.688 17.5255 11.8223 17.6407 11.9947C17.7559 12.1671 17.8173 12.3697 17.8173 12.577C17.8173 12.8549 17.7069 13.1215 17.5104 13.3181C17.3138 13.5146 17.0472 13.6251 16.7692 13.6251Z" fill="#C2C2C2" fill-opacity="0.48"/>
</svg>
