<svg width="26" height="26" viewBox="0 0 26 26" fill="none" xmlns="http://www.w3.org/2000/svg">
<path d="M13.3211 2.41061L21.4018 10.6695C21.7926 11.0747 22.0105 11.6158 22.0097 12.1787V20.9616C22.0105 21.4982 21.8056 22.0146 21.4371 22.4045C21.0686 22.7945 20.5646 23.0283 20.0288 23.0578H12.577H5.12513C4.58941 23.0283 4.08541 22.7945 3.7169 22.4045C3.34839 22.0146 3.14344 21.4982 3.14426 20.9616V12.1787C3.14127 11.9011 3.19347 11.6256 3.29783 11.3683C3.40218 11.1111 3.55661 10.8771 3.75214 10.68L11.8328 2.41061C11.9303 2.31237 12.0462 2.2344 12.1739 2.18119C12.3016 2.12798 12.4386 2.10059 12.577 2.10059C12.7153 2.10059 12.8523 2.12798 12.98 2.18119C13.1078 2.2344 13.2237 2.31237 13.3211 2.41061Z" fill="#2D4F9C"/>
</svg>
