<svg width="42" height="41" viewBox="0 0 42 41" fill="none" xmlns="http://www.w3.org/2000/svg">
<path d="M38.5994 0C36.9596 0 35.6302 1.32935 35.6302 2.96919V37.5798C35.6302 39.2197 36.9596 40.549 38.5994 40.549C40.2393 40.549 41.5686 39.2197 41.5686 37.5798V2.96919C41.5686 1.32935 40.2393 0 38.5994 0ZM26.7227 5.06863C25.0829 5.06863 23.7535 6.39798 23.7535 8.03781V37.5798C23.7535 39.2197 25.0829 40.549 26.7227 40.549C28.3625 40.549 29.6919 39.2197 29.6919 37.5798V8.03782C29.6919 6.39798 28.3625 5.06863 26.7227 5.06863ZM14.8459 15.2059C13.2061 15.2059 11.8767 16.5352 11.8767 18.1751V37.5798C11.8767 39.2197 13.2061 40.549 14.8459 40.549C16.4858 40.549 17.8151 39.2197 17.8151 37.5798V18.1751C17.8151 16.5352 16.4858 15.2059 14.8459 15.2059ZM2.96919 25.3431C1.32935 25.3431 0 26.6725 0 28.3123V37.5798C0 39.2197 1.32935 40.549 2.96919 40.549C4.60902 40.549 5.93837 39.2197 5.93837 37.5798V28.3123C5.93837 26.6725 4.60902 25.3431 2.96919 25.3431Z" fill="white"/>
</svg>
