<svg width="26" height="26" viewBox="0 0 26 26" fill="none" xmlns="http://www.w3.org/2000/svg">
<path d="M15.1938 10.8243H22.183C22.4136 10.8243 22.6349 10.7327 22.798 10.5696C22.9611 10.4065 23.0527 10.1853 23.0527 9.95462C23.0527 7.8703 22.2247 5.87136 20.7509 4.39753C19.277 2.92369 17.2781 2.0957 15.1938 2.0957C14.9631 2.0957 14.7419 2.18733 14.5788 2.35044C14.4157 2.51354 14.3241 2.73476 14.3241 2.96542V9.95462C14.3241 10.1853 14.4157 10.4065 14.5788 10.5696C14.7419 10.7327 14.9631 10.8243 15.1938 10.8243Z" fill="#C2C2C2" fill-opacity="0.48"/>
<path d="M22.0887 12.5742H13.5487C13.4235 12.5742 13.2995 12.5496 13.1838 12.5016C13.0681 12.4537 12.963 12.3835 12.8745 12.2949C12.7859 12.2064 12.7157 12.1013 12.6678 11.9856C12.6198 11.8699 12.5952 11.7459 12.5952 11.6207V3.05971C12.596 2.92379 12.568 2.78923 12.5132 2.66488C12.4583 2.54052 12.3778 2.42917 12.2768 2.33814C12.1759 2.2471 12.0569 2.17844 11.9275 2.13665C11.7982 2.09487 11.6615 2.0809 11.5264 2.09568C9.55927 2.30455 7.69148 3.06597 6.13899 4.29187C4.5865 5.51777 3.41273 7.15808 2.75341 9.02311C2.09408 10.8881 1.97615 12.9017 2.41323 14.831C2.85032 16.7602 3.82457 18.5263 5.22333 19.9251C6.62209 21.3239 8.38822 22.2981 10.3175 22.7352C12.2467 23.1723 14.2603 23.0544 16.1253 22.395C17.9904 21.7357 19.6307 20.5619 20.8566 19.0094C22.0825 17.457 22.8439 15.5892 23.0528 13.6221C23.0644 13.4886 23.0481 13.3542 23.0049 13.2274C22.9617 13.1006 22.8925 12.9841 22.8018 12.8855C22.7111 12.787 22.6009 12.7083 22.4781 12.6547C22.3553 12.6011 22.2227 12.5737 22.0887 12.5742Z" fill="#C2C2C2" fill-opacity="0.48"/>
</svg>
